<?xml version="1.0" encoding="UTF-8"?>
<svg version="1.1" xmlns="http://www.w3.org/2000/svg" width="1024" height="1024">
<path d="M0 0 C2.49101576 -0.00346648 4.98202998 -0.00823762 7.47304106 -0.01418173 C12.8389714 -0.0240123 18.20478227 -0.02476271 23.57070732 -0.01704025 C31.55065321 -0.00558758 39.53052385 -0.01154793 47.51046939 -0.02066517 C61.7711848 -0.03638446 76.03185965 -0.03512451 90.29257883 -0.02642844 C102.77301403 -0.01885613 115.25343443 -0.01692356 127.73387146 -0.02049637 C128.56449196 -0.02072552 129.39511246 -0.02095468 130.25090327 -0.02119078 C133.62338863 -0.02212492 136.99587397 -0.02308014 140.36835931 -0.02407007 C171.94954666 -0.03322941 203.5307083 -0.02495478 235.11189168 -0.00877938 C263.11712938 0.00545547 291.12232614 0.0041815 319.12756348 -0.01016235 C350.65415782 -0.02625616 382.18072949 -0.03257961 413.70732737 -0.02332556 C417.0733633 -0.02236353 420.43939924 -0.02142501 423.80543518 -0.02049637 C425.04847266 -0.02014052 425.04847266 -0.02014052 426.31662202 -0.01977748 C438.78355159 -0.01637739 451.25046468 -0.0203328 463.71739197 -0.02793503 C477.9050564 -0.03654387 492.09267424 -0.03430248 506.28033292 -0.0180928 C514.20256759 -0.00933795 522.12470117 -0.00862991 530.04693305 -0.02003132 C535.98764765 -0.02763186 541.9282749 -0.01928346 547.86897951 -0.0051076 C550.25291272 -0.00179014 552.63685966 -0.00338425 555.02078384 -0.01073496 C575.17436202 -0.0680509 595.48782338 1.06101616 615.08215332 6.13095093 C616.10655518 6.38771606 617.13095703 6.6444812 618.18640137 6.9090271 C657.34070151 17.0128725 691.02124338 36.63817886 720.26965332 64.38095093 C720.77287109 64.85548706 721.27608887 65.33002319 721.79455566 65.81893921 C729.79425128 73.41208869 736.67845227 81.54918471 743.26965332 90.38095093 C743.68424805 90.92412964 744.09884277 91.46730835 744.52600098 92.02694702 C765.66833821 119.75583878 778.74180968 152.29238697 785.26965332 186.38095093 C785.44567003 187.27739921 785.62168674 188.17384749 785.80303729 189.09746087 C787.85712595 201.21696975 787.55398219 213.37525546 787.53707886 225.63043213 C787.54081877 228.20341186 787.54542165 230.77639045 787.5508095 233.34936726 C787.56107014 238.92840757 787.56396018 244.50741321 787.56189728 250.08646202 C787.55883696 258.38346032 787.5671941 266.6804205 787.57764653 274.97741137 C787.59695523 290.66254643 787.60261361 306.34766839 787.60376064 322.03281395 C787.60468105 334.15136558 787.60880458 346.2699121 787.6151619 358.38846207 C787.6169571 361.88154097 787.61873673 365.37461988 787.62051165 368.86769879 C787.62095375 369.73618983 787.62139584 370.60468087 787.62185134 371.49948983 C787.63415449 395.91863968 787.64205302 420.33778776 787.64116478 444.75694084 C787.64113362 445.67699904 787.64110246 446.59705723 787.64107036 447.54499598 C787.64090416 452.20781661 787.64070608 456.87063723 787.64050095 461.53345786 C787.64044111 462.92243656 787.64044111 462.92243656 787.64038007 464.33947543 C787.64029919 466.21204461 787.6402156 468.08461379 787.64012928 469.95718297 C787.63890446 499.07502144 787.6539065 528.19281329 787.68127441 557.31063843 C787.71203945 590.05596896 787.7292042 622.80126887 787.72734797 655.54661477 C787.72719872 659.04283722 787.7271013 662.53905968 787.72703934 666.03528214 C787.72700437 667.32648197 787.72700437 667.32648197 787.7269687 668.64376666 C787.72690733 682.45745496 787.73964386 696.27110257 787.75690387 710.0847788 C787.77391226 723.98527805 787.77579367 737.88571821 787.76268522 751.78622214 C787.75533028 760.02857971 787.75884969 768.27075697 787.7785699 776.51309518 C787.79209264 782.69080409 787.78436545 788.86832401 787.76882346 795.04602434 C787.76577041 797.52784805 787.76932108 800.00969168 787.78054361 802.4914919 C787.93795328 839.80466978 778.87555593 874.5281632 761.26965332 907.38095093 C760.95028809 907.98100952 760.63092285 908.58106812 760.30187988 909.1993103 C750.72429135 927.03209952 738.16578603 942.73065624 724.26965332 957.38095093 C723.79511719 957.8841687 723.32058105 958.38738647 722.83166504 958.90585327 C715.23851555 966.90554888 707.10141954 973.78974988 698.26965332 980.38095093 C697.72647461 980.79554565 697.1832959 981.21014038 696.62365723 981.63729858 C668.89476547 1002.77963582 636.35821728 1015.85310729 602.26965332 1022.38095093 C601.37320504 1022.55696764 600.47675676 1022.73298434 599.55314338 1022.91433489 C587.4336345 1024.96842356 575.27534879 1024.66527979 563.02017212 1024.64837646 C560.44719239 1024.65211638 557.87421379 1024.65671926 555.30123699 1024.66210711 C549.72219668 1024.67236775 544.14319104 1024.67525779 538.56414223 1024.67319489 C530.26714392 1024.67013456 521.97018375 1024.67849171 513.67319288 1024.68894414 C497.98805782 1024.70825284 482.30293585 1024.71391122 466.6177903 1024.71505825 C454.49923867 1024.71597866 442.38069215 1024.72010219 430.26214218 1024.7264595 C426.76906328 1024.72825471 423.27598437 1024.73003433 419.78290546 1024.73180926 C418.91441442 1024.73225135 418.04592337 1024.73269345 417.15111442 1024.73314894 C392.73196457 1024.74545209 368.31281649 1024.75335062 343.89366341 1024.75246239 C342.51357611 1024.75241565 342.51357611 1024.75241565 341.10560827 1024.75236797 C336.44278764 1024.75220177 331.77996701 1024.75200368 327.11714639 1024.75179856 C325.72816769 1024.75173872 325.72816769 1024.75173872 324.31112882 1024.75167768 C322.43855964 1024.7515968 320.56599046 1024.7515132 318.69342128 1024.75142689 C289.57558281 1024.75020207 260.45779096 1024.76520411 231.33996582 1024.79257202 C198.59463528 1024.82333706 165.84933538 1024.84050181 133.10398948 1024.83864558 C129.60776703 1024.83849633 126.11154457 1024.83839891 122.61532211 1024.83833694 C121.75452222 1024.83831364 120.89372233 1024.83829033 120.00683759 1024.83826631 C106.19314929 1024.83820493 92.37950168 1024.85094147 78.56582545 1024.86820147 C64.6653262 1024.88520986 50.76488604 1024.88709127 36.8643821 1024.87398283 C28.62202454 1024.86662789 20.37984728 1024.8701473 12.13750906 1024.88986751 C5.95980016 1024.90339025 -0.21771976 1024.89566306 -6.39542009 1024.88012107 C-8.87724381 1024.87706802 -11.35908743 1024.88061869 -13.84088765 1024.89184122 C-51.15406554 1025.04925089 -85.87755895 1015.98685354 -118.73034668 998.38095093 C-119.63043457 997.90190308 -119.63043457 997.90190308 -120.54870605 997.41317749 C-138.38149527 987.83558895 -154.080052 975.27708363 -168.73034668 961.38095093 C-169.23356445 960.90641479 -169.73678223 960.43187866 -170.25524902 959.94296265 C-178.25494463 952.34981316 -185.13914563 944.21271714 -191.73034668 935.38095093 C-192.14494141 934.83777222 -192.55953613 934.29459351 -192.98669434 933.73495483 C-225.20434906 891.48040886 -237.27269965 840.99523319 -237.11129761 788.65060425 C-237.11476408 786.15958849 -237.11953522 783.66857427 -237.12547934 781.17756319 C-237.13530991 775.81163285 -237.13606032 770.44582198 -237.12833786 765.07989693 C-237.11688519 757.09995104 -237.12284554 749.1200804 -237.13196278 741.14013486 C-237.14768206 726.87941945 -237.14642212 712.6187446 -237.13772604 698.35802542 C-237.13015374 685.87759022 -237.12822116 673.39716982 -237.13179398 660.91673279 C-237.13213771 659.67080204 -237.13213771 659.67080204 -237.13248839 658.39970097 C-237.13342253 655.02721562 -237.13437775 651.65473027 -237.13536768 648.28224494 C-237.14452702 616.70105759 -237.13625239 585.11989594 -237.12007699 553.53871257 C-237.10584214 525.53347487 -237.10711611 497.52827811 -237.12145996 469.52304077 C-237.13755376 437.99644643 -237.14387722 406.46987476 -237.13462317 374.94327688 C-237.13366114 371.57724095 -237.13272261 368.21120501 -237.13179398 364.84516907 C-237.13155674 364.01647741 -237.13131951 363.18778576 -237.13107509 362.33398223 C-237.127675 349.86705266 -237.1316304 337.40013957 -237.13923264 324.93321228 C-237.14784148 310.74554785 -237.14560008 296.55793001 -237.1293904 282.37027133 C-237.12063556 274.44803665 -237.11992752 266.52590307 -237.13132893 258.6036712 C-237.13892947 252.6629566 -237.13058107 246.72232935 -237.1164052 240.78162473 C-237.11308774 238.39769153 -237.11468186 236.01374459 -237.12203257 233.62982041 C-237.17934851 213.47624223 -236.05028145 193.16278087 -230.98034668 173.56845093 C-230.72358154 172.54404907 -230.46681641 171.51964722 -230.20227051 170.46420288 C-220.09842511 131.30990274 -200.47311874 97.62936087 -172.73034668 68.38095093 C-172.01854248 67.62612427 -172.01854248 67.62612427 -171.2923584 66.85604858 C-163.69920891 58.85635297 -155.5621129 51.97215198 -146.73034668 45.38095093 C-146.18716797 44.9663562 -145.64398926 44.55176147 -145.08435059 44.12460327 C-102.82980461 11.90694854 -52.34462894 -0.16140204 0 0 Z " fill="#1E5EFF" transform="translate(236.7303466796875,-0.380950927734375)"/>
<path d="M0 0 C2.55094365 1.66605456 5.22450333 2.94827896 7.98565876 4.22888207 C9.71645339 5.09143161 11.44627368 5.95593903 13.17511189 6.82240319 C14.14223103 7.3050866 15.10935017 7.78777001 16.10577595 8.28508019 C19.22362956 9.84185113 22.34005278 11.40145913 25.45636189 12.96131921 C27.67049656 14.06804848 29.88469052 15.17465916 32.09894001 16.28115869 C36.70831369 18.58511424 41.31697309 20.89049053 45.92511189 23.19691491 C51.77631702 26.12536497 57.62931072 29.05021953 63.48285115 31.97399831 C68.04629286 34.25389616 72.60876421 36.53573053 77.1709615 38.81811738 C79.32642628 39.89617888 81.48217842 40.97366606 83.63824666 42.05052018 C94.40404213 47.42881626 105.13151366 52.86082471 115.76480687 58.49686265 C125.91490103 63.86416548 136.18112679 69.00274449 146.44073689 74.15663171 C148.05637909 74.96844557 148.05637909 74.96844557 149.70466053 75.79665971 C155.37845462 78.64677228 161.05363386 81.49410658 166.72979939 84.33949304 C171.40513512 86.68388612 176.07747333 89.03410436 180.74737751 91.38929772 C186.43177975 94.25611324 192.12099658 97.11314334 197.81385243 99.9631331 C199.97009331 101.04460629 202.12463324 102.12947796 204.27739918 103.21785188 C207.27481896 104.73233999 210.27827511 106.23414182 213.28351033 107.73304772 C214.1635674 108.18127892 215.04362446 108.62951013 215.95034993 109.09132409 C220.70028815 111.44230508 224.65704372 112.88247445 229.95636189 113.27772546 C229.95782845 113.97917782 229.95929501 114.68063018 229.96080601 115.40333867 C229.99785751 132.4711561 230.05685006 149.53875636 230.14026463 166.60641026 C230.18007423 174.86021461 230.21245692 183.11392335 230.22735798 191.36781335 C230.2403646 198.5619078 230.26730374 205.75579205 230.31097496 212.94976813 C230.33361231 216.75898541 230.34927123 220.56794322 230.34824574 224.37723374 C230.34750045 227.96345979 230.36539758 231.54911177 230.39752972 235.13518929 C230.41009656 237.0772277 230.40295445 239.01936236 230.39521992 240.96142602 C230.41608914 242.70084466 230.41608914 242.70084466 230.43737996 244.47540307 C230.44106713 245.48107922 230.4447543 246.48675536 230.4485532 247.52290654 C231.08909305 250.99778072 232.69370194 252.62022671 234.95636189 255.27772546 C235.51384078 258.68454089 235.73048035 261.00085848 233.89776814 264.02381921 C230.99536161 267.61522432 229.2791072 269.125101 224.70636189 269.65272546 C219.76363231 269.1584525 218.41807888 267.73944245 214.95636189 264.27772546 C213.3818045 261.12861067 213.60837071 258.7576373 213.95636189 255.27772546 C214.77738896 254.47434747 215.59841603 253.67096948 216.44432271 252.8432467 C220.50785413 248.18027107 219.6108672 242.34038936 219.52398884 236.47938561 C219.52471898 235.19103814 219.52544911 233.90269067 219.52620137 232.57530236 C219.52763221 229.05475693 219.49829793 225.53506843 219.46333158 222.01472163 C219.43201179 218.33122441 219.42913294 214.64770614 219.42320454 210.96409631 C219.40768248 203.9942449 219.36667664 197.02478702 219.31645709 190.05510867 C219.25004549 180.63310194 219.22311583 171.21098711 219.193946 161.78880525 C219.14697313 146.95148406 219.04735086 132.11499319 218.95636189 117.27772546 C189.91636189 131.79772546 160.87636189 146.31772546 130.95636189 161.27772546 C131.94636189 161.60772546 132.93636189 161.93772546 133.95636189 162.27772546 C133.95636189 185.04772546 133.95636189 207.81772546 133.95636189 231.27772546 C131.64636189 231.60772546 129.33636189 231.93772546 126.95636189 232.27772546 C125.27504259 234.61474758 125.27504259 234.61474758 124.45636189 237.65272546 C115.35438448 262.49231543 92.75083685 278.65590114 69.83136189 289.90272546 C52.97568315 297.63994093 35.17457368 302.12745232 16.95636189 305.27772546 C16.19355916 305.4104989 15.43075642 305.54327233 14.64483845 305.68006921 C-30.26733857 313.05154686 -84.44687836 305.0914908 -122.41082561 279.02381921 C-137.72989968 267.81711744 -152.91425808 254.17537338 -158.66863811 235.46522546 C-159.12238811 234.41335046 -159.57613811 233.36147546 -160.04363811 232.27772546 C-163.08118909 231.52475619 -163.08118909 231.52475619 -166.04363811 231.27772546 C-166.06676377 222.29851768 -166.08455434 213.31932009 -166.09545028 204.34008908 C-166.10067862 200.17109718 -166.10777537 196.00212559 -166.11907756 191.83314538 C-166.12990819 187.8131486 -166.13591532 183.79317141 -166.13851535 179.77316117 C-166.14036929 178.23609571 -166.1439893 176.69903136 -166.14936817 175.16197419 C-166.15658095 173.01637059 -166.15762895 170.87084891 -166.1571635 168.72523522 C-166.15938411 167.50167825 -166.16160472 166.27812127 -166.16389263 165.01748681 C-166.04363811 162.27772546 -166.04363811 162.27772546 -165.04363811 161.27772546 C-196.06363811 145.76772546 -227.08363811 130.25772546 -259.04363811 114.27772546 C-256.2286699 112.1664993 -253.94269922 110.59398146 -250.88758552 109.02497506 C-250.06229046 108.59892755 -249.2369954 108.17288004 -248.38669139 107.733922 C-247.48525734 107.2734986 -246.58382328 106.8130752 -245.65507305 106.33869958 C-244.69317564 105.84384348 -243.73127823 105.34898738 -242.74023241 104.83913565 C-239.50996719 103.17896716 -236.2767701 101.52459944 -233.04339397 99.8704989 C-230.72876656 98.68318638 -228.41420829 97.49573905 -226.09971416 96.30816674 C-204.97090033 85.47432128 -183.79389103 74.73477364 -162.60550392 64.01800179 C-159.77054765 62.58382786 -156.93572236 61.14939542 -154.10101116 59.71473718 C-153.39649075 59.35818973 -152.69197033 59.00164228 -151.96610082 58.63429037 C-140.56287169 52.86130491 -129.18812843 47.03427554 -117.8233121 41.18610021 C-106.14268105 35.1768424 -94.4344118 29.22438415 -82.6984815 23.32383966 C-75.46725684 19.68601099 -68.26063552 16.00663026 -61.07992209 12.27005932 C-55.56485147 9.40626269 -50.01264398 6.622764 -44.44305408 3.86664796 C-42.17220416 2.72774055 -39.91382217 1.56355621 -37.67005718 0.37217546 C-22.79070656 -7.50472701 -14.41908244 -9.59388159 0 0 Z M-21.84860313 4.99563622 C-22.6209233 5.37880974 -23.39324347 5.76198325 -24.18896729 6.15676808 C-25.03623739 6.5847724 -25.88350749 7.01277671 -26.75645244 7.45375085 C-27.65739724 7.90294161 -28.55834203 8.35213237 -29.48658818 8.81493497 C-32.5204524 10.32938618 -35.54993407 11.85240566 -38.57952678 13.37538171 C-40.74717174 14.45962706 -42.91508071 15.54334475 -45.08323467 16.62657189 C-49.75859246 18.96390864 -54.43208785 21.30492525 -59.10393131 23.64927697 C-65.85866964 27.03882663 -72.61670418 30.42175956 -79.37556664 33.80307662 C-90.34076234 39.288959 -101.30326646 44.78019778 -112.26409709 50.27479577 C-122.91275744 55.61289037 -133.5626728 60.94846771 -144.21429241 66.28065515 C-144.87064326 66.60922466 -145.52699412 66.93779417 -146.2032344 67.27632034 C-149.49589752 68.92460943 -152.78858545 70.57284896 -156.08128572 72.22106385 C-183.40592023 85.89893611 -210.7261496 99.58558621 -238.04363811 113.27772546 C-234.21002396 116.4842318 -229.83888257 118.52673789 -225.39607036 120.74531579 C-224.51413318 121.18960829 -223.632196 121.63390078 -222.72353345 122.09165668 C-219.76451848 123.58101544 -216.80266123 125.06462923 -213.84075725 126.54823327 C-211.72007569 127.61402102 -209.59955028 128.68011951 -207.47916973 129.74650598 C-201.11615093 132.94486318 -194.74972082 136.13639465 -188.3827112 139.32679689 C-185.38402881 140.82962089 -182.3857855 142.3333203 -179.38750827 143.83695245 C-169.421692 148.83445573 -159.45499851 153.83020189 -149.48546493 158.82028604 C-148.84785919 159.13943425 -148.21025346 159.45858247 -147.55332633 159.78740184 C-146.91420727 160.10730738 -146.2750882 160.42721292 -145.61660188 160.75681257 C-144.32152691 161.40505605 -143.0264537 162.05330306 -141.73138225 162.70155358 C-141.08898302 163.02310578 -140.44658379 163.34465799 -139.78471791 163.67595419 C-129.36581399 168.89153703 -118.9530808 174.1193162 -108.54289193 179.35226884 C-97.85467216 184.72474877 -87.16123663 190.08672366 -76.46251756 195.4382658 C-70.45562406 198.44325471 -64.45110344 201.45278738 -58.45234668 204.47399163 C-52.81387359 207.31303329 -47.16894879 210.13879864 -41.51871479 212.95435739 C-39.44299057 213.99158395 -37.36966761 215.03363161 -35.29892147 216.08076119 C-32.47827845 217.50618473 -29.64960911 218.91420495 -26.8181895 220.3180697 C-25.58346128 220.94970304 -25.58346128 220.94970304 -24.32378906 221.59409666 C-20.00725511 223.7409323 -20.00725511 223.7409323 -15.29056442 224.16138768 C-12.90626725 223.22370079 -10.61008179 222.24680317 -8.3182658 221.09878564 C-7.39646526 220.64066995 -6.47466472 220.18255425 -5.52493083 219.71055627 C-4.52547435 219.20622064 -3.52601787 218.701885 -2.49627483 218.18226647 C-1.43366436 217.65198342 -0.37105388 217.12170037 0.72375691 216.57534814 C3.63596081 215.12049224 6.54541907 213.66031522 9.45369017 212.19761801 C12.5177108 210.65805398 15.58500104 209.1250305 18.65188801 207.59118676 C23.81708304 205.00674235 28.98000505 202.41780497 34.14142048 199.82582116 C40.70679072 196.52881931 47.27575618 193.23905114 53.84596646 189.95170712 C59.54867257 187.09833871 65.24967931 184.24158046 70.95042765 181.38430309 C72.75292073 180.48103518 74.55563141 179.57820275 76.35837376 178.67543244 C87.99108913 172.84713539 99.59649367 166.98339469 111.09146225 160.88743901 C120.19285636 156.07182836 129.40957553 151.48867569 138.62433064 146.89491296 C140.52540482 145.94531181 142.42638876 144.99552996 144.32728779 144.04557824 C149.2597406 141.58123418 154.19339081 139.11929724 159.12732136 136.65791345 C164.19022168 134.13163652 169.25194856 131.60301064 174.31378376 129.07460046 C184.1935161 124.14004939 194.07451895 119.20804837 203.95636189 114.27772546 C201.3422796 112.23076451 198.77730132 110.56472302 195.8068105 109.08605981 C194.98735447 108.67567971 194.16789845 108.26529962 193.32361042 107.84248376 C192.43276753 107.40144311 191.54192463 106.96040246 190.6240865 106.50599694 C189.6786649 106.03394326 188.7332433 105.56188958 187.75917256 105.07553124 C184.62750404 103.51294583 181.49308259 101.95596366 178.35870564 100.39881921 C176.16771067 99.30646024 173.97692302 98.21368536 171.7863332 97.12051415 C166.00356889 94.23579083 160.21860301 91.35551272 154.43298542 88.47651696 C145.22695152 83.89501277 136.02349866 79.30833759 126.8214761 74.71878266 C123.63295541 73.12955711 120.44304803 71.54314316 117.25297749 69.95703149 C107.47467813 65.08796281 97.74430324 60.15005655 88.09398758 55.03189969 C78.20942934 49.80152138 68.20463522 44.80962861 58.20636189 39.80116296 C57.16840474 39.28077069 56.13044758 38.76037843 55.06103718 38.2242167 C49.59914598 35.48586205 44.13616449 32.74969812 38.6721822 30.01551843 C33.03497094 27.19413767 27.40152947 24.36531073 21.76886189 21.53487229 C17.41813825 19.35023304 13.06476747 17.17091133 8.71063435 14.99307656 C6.62995433 13.95122231 4.5502758 12.90736552 2.47162068 11.86147714 C-0.41349657 10.41044045 -3.30225873 8.96693302 -6.19207561 7.52528405 C-7.04911083 7.09215905 -7.90614604 6.65903405 -8.78915203 6.21278405 C-9.57357677 5.82335626 -10.35800151 5.43392846 -11.1661967 5.03269982 C-11.84669078 4.6917195 -12.52718486 4.35073918 -13.22829998 3.99942613 C-16.62480218 2.64912237 -18.7584361 3.44791455 -21.84860313 4.99563622 Z M115.81183064 167.91053796 C114.15030464 168.76789007 112.48850196 169.62470611 110.82647908 170.4810946 C109.4513918 171.18977181 109.4513918 171.18977181 108.04852498 171.91276574 C105.08595115 173.43243103 102.11655975 174.93789783 99.14483845 176.43959069 C96.90336356 177.57391627 94.66216778 178.70879348 92.42120564 179.84413171 C91.82651101 180.14537139 91.23181637 180.44661107 90.61910069 180.75697923 C81.05139343 185.61073642 71.55703184 190.59443655 62.08406365 195.63039804 C53.93336594 199.95910333 45.75371932 204.23014353 37.55712998 208.47127175 C32.36189855 211.16289708 27.18412368 213.88047816 22.03628743 216.6618197 C17.0935336 219.33138544 12.11817355 221.92697809 7.11172497 224.47496247 C5.25126137 225.43763626 3.40380411 226.42594651 1.57158291 227.44134355 C-11.86886415 234.86254907 -11.86886415 234.86254907 -18.31376064 233.95971513 C-23.39884329 232.3886469 -27.81172183 229.6574762 -32.32220256 226.88591218 C-37.44893366 223.85635637 -42.85214678 221.3589064 -48.20037639 218.74818444 C-50.62569627 217.5419918 -53.04626331 216.32642143 -55.46652019 215.11010766 C-56.72612709 214.47812938 -57.98577239 213.84622761 -59.24545467 213.21439958 C-59.88011984 212.89596109 -60.51478501 212.57752261 -61.16868246 212.24943447 C-64.47711702 210.59014691 -67.7869048 208.93356311 -71.09658611 207.27676415 C-79.4551458 203.09199636 -87.81197017 198.90376933 -96.16863811 194.71522546 C-105.25767853 190.15966039 -114.34703967 185.60474083 -123.43833137 181.05366975 C-127.36868903 179.08599982 -131.29806403 177.11638512 -135.22669613 175.14527237 C-137.07119106 174.22020315 -138.9161349 173.29603686 -140.76128948 172.37228417 C-143.01326311 171.24485511 -145.26451023 170.11597335 -147.51492107 168.98542809 C-148.49853618 168.49358529 -149.48215129 168.00174249 -150.49557292 167.49499536 C-151.7845558 166.84883846 -151.7845558 166.84883846 -153.09957874 166.18962789 C-154.83664458 165.20694674 -154.83664458 165.20694674 -156.04363811 165.27772546 C-156.04363811 181.77772546 -156.04363811 198.27772546 -156.04363811 215.27772546 C-154.72363811 215.27772546 -153.40363811 215.27772546 -152.04363811 215.27772546 C-152.10551311 216.18522546 -152.16738811 217.09272546 -152.23113811 218.02772546 C-152.10410133 233.84380497 -142.98673334 248.45456452 -132.04363811 259.27772546 C-97.38205993 291.12085681 -47.39268054 299.1318288 -2.04363811 297.27772546 C32.21730522 295.16974305 67.05222264 285.23686715 93.95636189 263.27772546 C94.61894001 262.76725671 95.28151814 262.25678796 95.96417439 261.73085046 C107.56386056 252.47190814 117.06907511 237.14010888 118.95636189 222.27772546 C119.0709271 219.91591967 119.05706625 217.64427799 118.95636189 215.27772546 C120.60636189 215.27772546 122.25636189 215.27772546 123.95636189 215.27772546 C123.95636189 198.44772546 123.95636189 181.61772546 123.95636189 164.27772546 C121.32303889 164.27772546 118.16398651 166.69064044 115.81183064 167.91053796 Z " fill="#FFFFFF" transform="translate(529.0436381101608,329.72227454185486)"/>
</svg>
